<svg xmlns="http://www.w3.org/2000/svg" width="57.451" height="48.671" viewBox="0 0 57.451 48.671">
  <g id="Group_863" data-name="Group 863" transform="translate(1.499 1.499)">
    <path id="Path_2615" data-name="Path 2615" d="M707.287,1287.972V1315.3a2.154,2.154,0,0,1-2.153,2.155H658.407a2.154,2.154,0,0,1-2.153-2.155v-27.331" transform="translate(-654.544 -1271.787)" fill="none" stroke="#bcbcbc" stroke-linecap="round" stroke-miterlimit="10" stroke-width="3"/>
    <path id="Path_2616" data-name="Path 2616" d="M676.234,1274.48a147.786,147.786,0,0,1-23.26-1.765.964.964,0,0,1-.8-.95v-7.631a2.153,2.153,0,0,1,2.152-2.155h50.146a2.154,2.154,0,0,1,2.153,2.155v7.631a.964.964,0,0,1-.8.95,149.327,149.327,0,0,1-23.261,1.765C680.981,1274.5,677.816,1274.5,676.234,1274.48Z" transform="translate(-652.172 -1256.682)" fill="none" stroke="#bcbcbc" stroke-linecap="round" stroke-miterlimit="10" stroke-width="3"/>
    <path id="Path_2617" data-name="Path 2617" d="M712.574,1254.63v-2.775a2.522,2.522,0,0,0-2.521-2.523H691.36a2.522,2.522,0,0,0-2.521,2.523v2.775" transform="translate(-673.481 -1249.332)" fill="none" stroke="#bcbcbc" stroke-linecap="round" stroke-miterlimit="10" stroke-width="3"/>
  </g>
</svg>
