<svg xmlns="http://www.w3.org/2000/svg" xmlns:xlink="http://www.w3.org/1999/xlink" width="72.246" height="72.246" viewBox="0 0 72.246 72.246">
  <defs>
    <clipPath id="clip-path">
      <rect id="Rectangle_487" data-name="Rectangle 487" width="72.246" height="72.246" fill="none" stroke="#fff" stroke-width="0.5"/>
    </clipPath>
  </defs>
  <g id="Group_478" data-name="Group 478" opacity="0.999">
    <g id="Group_477" data-name="Group 477" transform="translate(0 0)" clip-path="url(#clip-path)">
      <path id="Path_1628" data-name="Path 1628" d="M72.246,36.123q0,14.47,0,28.94c0,4.407-2.784,7.182-7.2,7.183q-28.94,0-57.88,0C2.8,72.245,0,69.453,0,65.1Q0,36.122,0,7.144C0,2.792,2.8,0,7.164,0Q36.143,0,65.121,0c4.311,0,7.123,2.8,7.124,7.105q0,14.508,0,29.016m-36.2,32.664q14.583,0,29.167,0a3.218,3.218,0,0,0,3.577-3.545q0-29.129,0-58.257a3.206,3.206,0,0,0-3.522-3.522q-8.289-.007-16.579,0c-1,0-1,0-1,1.027q0,11.59.007,23.18a3.532,3.532,0,0,1-1.838,3.451,3.448,3.448,0,0,1-3.812-.439c-1.732-1.183-3.5-2.315-5.226-3.507a1.033,1.033,0,0,0-1.369,0c-1.768,1.22-3.567,2.4-5.356,3.587a3.558,3.558,0,0,1-2.519.73,3.385,3.385,0,0,1-3-3.582q-.01-11.667,0-23.333c0-1.11,0-1.112-1.073-1.112q-8.175,0-16.349,0-3.685,0-3.685,3.667,0,28.975,0,57.95c0,2.5,1.216,3.709,3.721,3.709q14.43,0,28.86,0M44.223,15.78h0c0-3.837-.008-7.673.009-11.51,0-.572-.138-.824-.77-.822q-7.328.03-14.655,0c-.611,0-.789.212-.787.8q.022,11.472.013,22.943c0,.193-.1.45.11.566s.373-.106.534-.212c1.749-1.158,3.5-2.306,5.234-3.491a3.587,3.587,0,0,1,4.418-.012c1.691,1.152,3.4,2.277,5.107,3.4.2.135.409.426.657.31.267-.125.128-.462.128-.7q.012-5.64.006-11.28" transform="translate(0 0)" fill="#21428e" stroke="#fff" stroke-width="0.5"/>
      <path id="Path_1629" data-name="Path 1629" d="M146.037,152.712c-1.049,0-2.1.014-3.147,0a3.365,3.365,0,0,1-3.454-3.45q-.033-3.185,0-6.371a3.355,3.355,0,0,1,3.447-3.454q3.185-.033,6.371,0a3.354,3.354,0,0,1,3.454,3.447q.034,3.185,0,6.371a3.363,3.363,0,0,1-3.447,3.456c-1.074.019-2.149,0-3.224,0m-.016-3.458c.844,0,1.689-.021,2.532.007.538.018.716-.2.71-.724-.021-1.662-.015-3.325,0-4.988,0-.432-.119-.669-.6-.666-1.714.014-3.428.01-5.141,0-.4,0-.628.119-.625.565q.013,2.609,0,5.218c0,.428.185.594.6.588.844-.013,1.688,0,2.532,0" transform="translate(-90.295 -90.295)" fill="#f2bf33" stroke="#fff" stroke-width="0.5"/>
      <path id="Path_1630" data-name="Path 1630" d="M37.811,144.2q3.949,0,7.9,0c1.251,0,2.018.649,2.031,1.694a1.836,1.836,0,0,1-2.03,1.744q-7.859.021-15.717,0a1.843,1.843,0,0,1-1.952-1.184,1.585,1.585,0,0,1,.4-1.759,1.867,1.867,0,0,1,1.473-.5c2.632.01,5.265,0,7.9,0" transform="translate(-18.086 -93.386)" fill="#f2bf33" stroke="#fff" stroke-width="0.5"/>
      <path id="Path_1631" data-name="Path 1631" d="M34.5,170.788c-1.586,0-3.172.031-4.757-.008a1.708,1.708,0,0,1-1.61-2.505,1.674,1.674,0,0,1,1.568-.928c3.248-.012,6.5-.023,9.743.006a1.7,1.7,0,0,1,1.738,1.691,1.717,1.717,0,0,1-1.774,1.736c-1.636.034-3.273.009-4.91.01" transform="translate(-18.086 -108.374)" fill="#f2bf33" stroke="#fff" stroke-width="0.5"/>
    </g>
  </g>
</svg>
