<svg id="Group_831" data-name="Group 831" xmlns="http://www.w3.org/2000/svg" xmlns:xlink="http://www.w3.org/1999/xlink" width="92.652" height="98.732" viewBox="0 0 92.652 98.732">
  <defs>
    <clipPath id="clip-path">
      <rect id="Rectangle_485" data-name="Rectangle 485" width="92.652" height="98.732" fill="none"/>
    </clipPath>
  </defs>
  <g id="Group_473" data-name="Group 473" clip-path="url(#clip-path)">
    <path id="Path_1609" data-name="Path 1609" d="M95.238,18.8c0-1.915.011-3.83,0-5.745a2.532,2.532,0,0,0-2.771-2.8c-2.243-.035-2.243-.035-2.243,2.162,0,20.961-.043,41.923.032,62.884.017,4.852-1.713,8.566-5.9,11.075L81.43,87.427c-2.357.343-4.733.1-7.1.22H71.4q-9.356-.017-18.711-.031c-4.634,0-9.268.02-13.9.03H35.85c-2.364-.123-4.739.123-7.1-.219l-2.923-1.052a11.368,11.368,0,0,1-5.558-7.238,13.543,13.543,0,0,1-.315-3.21q.008-32.225.028-64.45c0-.982-.188-1.41-1.223-1.235a9.671,9.671,0,0,1-1.252.015,2.479,2.479,0,0,0-2.558,2.584c-.029,1.984-.007,3.969-.008,5.954l-2.928,0c0-1.985-.015-3.971,0-5.956a5.289,5.289,0,0,1,5.473-5.474c1.84.061,2.908-.261,3.836-2.16A9.1,9.1,0,0,1,29.91.038Q55.1-.048,80.283.024A10.01,10.01,0,0,1,89.551,6.5a1.077,1.077,0,0,0,1.265.844,14.217,14.217,0,0,1,2.712.05,5.381,5.381,0,0,1,4.634,5.354c.026,2.02,0,4.04,0,6.061l-2.927-.01M68.68,84.653h2.934c2.4.011,4.8.035,7.2.03a8.106,8.106,0,0,0,8.475-8.465q.015-10.283,0-20.566c0-.251.13-.546-.156-.8a10.846,10.846,0,0,1-8.211,2.879c-2.433-.074-4.871.005-7.306.016H68.68c-1.846-.011-3.692-.033-5.539-.031q-10.819.01-21.638.031H38.569c-2.784-.011-5.568-.036-8.353-.03A10.186,10.186,0,0,1,23.5,55.287c-.163-.135-.262-.438-.588-.3,0,7.276-.032,14.551.013,21.825A7.839,7.839,0,0,0,29.4,84.456c3.029.5,6.11.158,9.167.2H41.5c.94.011,1.88.032,2.82.031q12.178-.012,24.357-.031M55.735,12.588c1.151.71.715,1.888.854,2.9a1.5,1.5,0,0,0-.028.207q0,19.182-.027,38.364c0,.889.476.732.981.732q11.134,0,22.269,0A7.178,7.178,0,0,0,87.29,47.3q.016-18.555,0-37.11a6.622,6.622,0,0,0-.532-2.845,7.052,7.052,0,0,0-6.764-4.393c-7.214-.034-14.427-.011-21.641-.011-1.855,0-1.855,0-1.761,1.878-.1,1.033.246,2.211-.938,2.894h-1.12c-1.185-.682-.834-1.861-.937-2.894.011-.174.03-.347.032-.52.015-1.358.014-1.359-1.373-1.358q-10.921.01-21.841.021a7.134,7.134,0,0,0-7.5,7.453q0,18.39,0,36.781a7.174,7.174,0,0,0,7.515,7.573c7.385.015,14.77,0,22.155.045.883.006,1.071-.228,1.068-1.084-.034-8.6-.018-17.206-.022-25.809,0-4.144-.021-8.288-.032-12.432.137-1.01-.3-2.187.853-2.9h1.287" transform="translate(-8.655 0)" fill="#21428e"/>
    <path id="Path_1610" data-name="Path 1610" d="M3.362,67.27l2.929,0c2.521.2,3.759,1.536,3.762,4.058q.005,4.179,0,8.358A3.581,3.581,0,0,1,6.181,83.6c-.871.005-1.742.019-2.612,0A3.511,3.511,0,0,1,.026,80.1q-.053-4.648,0-9.3c.021-1.886,1.2-3.086,3.336-3.529M2.944,75.4c0,1.425.016,2.849-.007,4.274-.011.7.254,1.036.978,1.009a20.106,20.106,0,0,1,2.084,0c.879.059,1.154-.331,1.139-1.172-.039-2.084.01-4.169-.018-6.254-.048-3.568.592-2.964-3.1-3.046-.828-.018-1.105.327-1.083,1.12.037,1.354.01,2.71.01,4.065" transform="translate(0 -48.47)" fill="#f2bf33"/>
    <path id="Path_1611" data-name="Path 1611" d="M299.568,67.268l2.926.01c2.372.707,3.139,1.743,3.139,4.248,0,2.752.008,5.5,0,8.254a3.568,3.568,0,0,1-3.863,3.825c-.871.005-1.742.018-2.612,0a3.51,3.51,0,0,1-3.549-3.5q-.055-4.649,0-9.3c.026-2.119,1.5-3.4,3.96-3.536m3.138,8.26c0-.765.012-1.529,0-2.293-.066-3.565.632-2.942-3.238-3.012-.656-.012-.948.268-.946.932q.017,4.274,0,8.547c0,.718.3,1.007,1,.983.729-.026,1.46-.026,2.189,0,.706.025,1.013-.272,1-.987-.024-1.39-.007-2.78-.006-4.169" transform="translate(-212.984 -48.471)" fill="#f2bf33"/>
    <path id="Path_1612" data-name="Path 1612" d="M61.428,309.11l2.923,1.052c0,1.563-.019,3.126-.006,4.688a3.553,3.553,0,1,0,7.1.011c.015-1.493,0-2.987,0-4.48h2.934c0,1.635,0,3.271,0,4.906a6.292,6.292,0,0,1-6.177,6.172,6.447,6.447,0,0,1-6.688-4.949,9.5,9.5,0,0,1-.094-1.973c-.01-1.809,0-3.618.009-5.427" transform="translate(-44.252 -222.734)" fill="#f2bf33"/>
    <path id="Path_1613" data-name="Path 1613" d="M224.493,310.381h2.934c0,1.493-.014,2.987,0,4.48a3.552,3.552,0,1,0,7.1-.011c.014-1.563,0-3.126-.005-4.688l2.923-1.052c0,2.157.033,4.315.008,6.471a6.215,6.215,0,0,1-5.841,5.848c-3.748.073-6.2-1.639-7-4.9a13.27,13.27,0,0,1-.108-2.909c-.027-1.078-.008-2.157-.009-3.236" transform="translate(-161.749 -222.733)" fill="#f2bf33"/>
    <path id="Path_1614" data-name="Path 1614" d="M168.269,24.949l24.854-.033c1.718,0,1.718,0,1.686-1.695-.037-1.921-1.333-3.087-3.544-3.106-3.1-.027-6.2,0-9.3-.008q-6.892-.013-13.784-.036c1.183-.683.836-1.861.938-2.894,7.483,0,14.967.05,22.449-.021,2.944-.028,6.481,2.36,6.176,6.137-.076.934,0,1.878-.013,2.818-.012,1.274-.479,1.731-1.777,1.732q-13.418.005-26.835,0c-.139-1.009.3-2.187-.854-2.9" transform="translate(-121.188 -12.361)" fill="#f2bf33"/>
    <path id="Path_1615" data-name="Path 1615" d="M87.857,20.049,65.6,20.086c-.383,0-.768-.016-1.149.011a3.4,3.4,0,0,0-3.2,4.4c.1.412.343.365.612.371.592.013,1.184.024,1.776.025q12.068.019,24.136.034c-1.15.711-.717,1.888-.854,2.9l-26.619.02c-1.629,0-2.017-.388-2.019-2.017,0-.939.056-1.883-.01-2.818-.232-3.279,2.946-5.9,6-5.885,7.551.035,15.1.023,22.652.03.1,1.033-.249,2.212.937,2.894" transform="translate(-41.98 -12.34)" fill="#f2bf33"/>
    <path id="Path_1616" data-name="Path 1616" d="M109.936,206.664c0,.418,0,.836,0,1.254,0,2.227,1.1,3.48,3.351,3.5q10.24.079,20.481,0c2.252-.017,3.349-1.271,3.351-3.5,0-.418,0-.836,0-1.253h2.934c0,.591-.043,1.186,0,1.773.265,3.328-2.869,5.928-5.936,5.929q-10.592,0-21.183,0c-3.023,0-6.2-2.571-5.934-5.93.047-.587,0-1.182,0-1.773h2.934" transform="translate(-77.088 -148.915)" fill="#f2bf33"/>
    <path id="Path_1617" data-name="Path 1617" d="M137.11,283.041c0-.383,0-.765,0-1.147,0-2.346-1.2-3.609-3.578-3.618q-10.014-.038-20.028,0c-2.373.009-3.576,1.275-3.577,3.619,0,.382,0,.765,0,1.147H107a19.817,19.817,0,0,1,.074-3.023,5.977,5.977,0,0,1,5.58-4.667q10.867-.053,21.734,0a5.832,5.832,0,0,1,5.653,5.806q0,.94,0,1.881H137.11" transform="translate(-77.085 -198.388)" fill="#f2bf33"/>
    <path id="Path_1618" data-name="Path 1618" d="M65.075,240.5a5.429,5.429,0,0,1,5.453-5.409,5.576,5.576,0,0,1,5.407,5.511,5.48,5.48,0,0,1-5.45,5.328,5.384,5.384,0,0,1-5.409-5.43m7.783.072a2.272,2.272,0,0,0-2.308-2.409,2.378,2.378,0,0,0-2.494,2.377,2.531,2.531,0,0,0,2.416,2.415,2.374,2.374,0,0,0,2.386-2.383" transform="translate(-46.891 -169.398)" fill="#f2bf33"/>
    <path id="Path_1619" data-name="Path 1619" d="M241.137,240.564a5.371,5.371,0,0,1-10.743.021,5.373,5.373,0,1,1,10.743-.021m-5.31-2.406a2.353,2.353,0,0,0-2.465,2.284,2.406,2.406,0,1,0,4.809.111,2.331,2.331,0,0,0-2.344-2.4" transform="translate(-166.014 -169.392)" fill="#f2bf33"/>
  </g>
</svg>
