<svg xmlns="http://www.w3.org/2000/svg" width="15.641" height="14.202" viewBox="0 0 15.641 14.202">
  <path id="Path_2527" data-name="Path 2527" d="M2589.446,3144.252a2.178,2.178,0,0,1,1.931,0l6.557,3.98v.009l-5.963,3.7,4.168,2.625a.32.32,0,0,1,.1.432.309.309,0,0,1-.263.152.291.291,0,0,1-.155-.046l-4.516-2.833a2.239,2.239,0,0,1-1.372,0l-4.512,2.833A.3.3,0,0,1,2585,3155a.324.324,0,0,1,.1-.432l3.892-2.625-6.229-3.7v-.009Zm8.763,3.764c0-.022.135-.039.13-.062s.056-.037.047-.056.018-.033,0-.049-.009-.028-.027-.043-.006-.019-.017-.025l-6.536-4.071a2.431,2.431,0,0,0-2.387,0l-6.54,4.071c-.011.007-.018.018-.027.025a.309.309,0,0,0-.043.043c-.013.015-.024.035-.034.049s-.017.037-.024.056.008.039.006.062.008.025.008.037v8.18a1.349,1.349,0,0,0,1.482,1.367h12.736c.835,0,.949-.5.949-1.367v-8.18c0-.011.278-.024.274-.037" transform="translate(-2582.752 -3143.398)" fill="#e6e6e6"/>
</svg>
