<svg xmlns="http://www.w3.org/2000/svg" width="28.639" height="28.64" viewBox="0 0 28.639 28.64">
  <g id="Group_830" data-name="Group 830" transform="translate(-321.834 -81.648)">
    <path id="Path_2521" data-name="Path 2521" d="M321.834,89.92a10.76,10.76,0,0,1,.588-2.379,8.607,8.607,0,0,1,.56-1.186c.226-.385.531-.507.849-.338s.393.518.174.918a8.059,8.059,0,0,0-.939,2.818,7.729,7.729,0,0,0,1.2,5.44,1.213,1.213,0,0,1,.11,1.5,3.048,3.048,0,0,0-.224.481c-.024.056-.079.119-.022.18s.122.015.183,0c.3-.077.6-.142.89-.237a1.009,1.009,0,0,1,1.009.2,7.6,7.6,0,0,0,3.914,1.577,8.083,8.083,0,0,0,8.981-7.474,8.059,8.059,0,0,0-6.365-8.441,7.933,7.933,0,0,0-5.246.654c-.134.065-.264.138-.4.205a.6.6,0,0,1-.872-.187.588.588,0,0,1,.3-.839,8.881,8.881,0,0,1,1.657-.733,11.885,11.885,0,0,1,1.931-.429h1.9a10.587,10.587,0,0,1,2.035.469,9.163,9.163,0,0,1,6.147,7.269,8.657,8.657,0,0,1,.1,1.976c-.01.26.071.333.329.333q3.731-.013,7.462,0a2.353,2.353,0,0,1,2.352,1.882,2.088,2.088,0,0,1,.038.472q0,5.435,0,10.871a2.337,2.337,0,0,1-2.338,2.351c-.261,0-.522.012-.782,0-.217-.012-.3.059-.293.284.013.68,0,1.36.007,2.04a.613.613,0,0,1-.315.633.627.627,0,0,1-.721-.126c-1.073-.881-2.152-1.754-3.22-2.639a.806.806,0,0,0-.559-.192c-2.487,0-4.975-.027-7.461.015a2.451,2.451,0,0,1-2.478-2.489c.051-1.479.01-2.962.014-4.443,0-.2-.024-.307-.276-.281a9.018,9.018,0,0,1-6.108-1.5,1.058,1.058,0,0,0-1.025-.157c-.529.174-1.078.289-1.618.431a.668.668,0,0,1-.769-.156.648.648,0,0,1-.024-.757c.266-.564.515-1.136.779-1.7a.331.331,0,0,0-.015-.362,9,9,0,0,1-1.406-3.935.68.68,0,0,0-.031-.107Zm24.072,18.545c0-.626,0-1.166,0-1.705a.573.573,0,0,1,.655-.648c.475,0,.95,0,1.425,0a1.24,1.24,0,0,0,1.326-1.334q.006-5.294,0-10.589a1.24,1.24,0,0,0-1.35-1.338c-2.524,0-5.048,0-7.572-.006a.317.317,0,0,0-.364.278,9.159,9.159,0,0,1-6.3,6.606.3.3,0,0,0-.248.336c.007,1.583,0,3.167.006,4.75a1.245,1.245,0,0,0,.45,1.012,1.416,1.416,0,0,0,.941.286c2.58,0,5.159,0,7.739,0a1.032,1.032,0,0,1,.713.251c.562.475,1.135.936,1.705,1.4C345.3,107.98,345.576,108.2,345.906,108.465Z" transform="translate(0 0)" fill="#21428e"/>
    <path id="Path_2522" data-name="Path 2522" d="M336.913,97.366a7.426,7.426,0,0,1-1,1.528,6.359,6.359,0,0,1-1.659,1.351.593.593,0,1,1-.584-1.021,5.232,5.232,0,0,0,2.508-3.345c.1-.417.1-.417-.312-.418-.493,0-.987,0-1.48,0a.576.576,0,0,1-.63-.565.585.585,0,0,1,.637-.59c.549-.005,1.1-.01,1.648,0,.223.005.291-.075.288-.291q-.015-.991,0-1.983a.612.612,0,0,1,.5-.619.6.6,0,0,1,.619.338,1.023,1.023,0,0,1,.07.437c0,.6.01,1.192-.005,1.788-.007.258.079.337.335.331.717-.015,1.434-.009,2.151,0a.562.562,0,0,1,.6.564.568.568,0,0,1-.6.59c-.093,0-.186,0-.279,0-.624,0-1.248.007-1.871,0-.221,0-.271.062-.223.278a5.24,5.24,0,0,0,2.418,3.411c.063.04.13.074.191.116a.588.588,0,1,1-.612,1,6.4,6.4,0,0,1-2.542-2.6Z" transform="translate(-5.89 -5.016)" fill="#21428e"/>
    <path id="Path_2523" data-name="Path 2523" d="M328.174,87.4a.625.625,0,0,1-.6.582.59.59,0,1,1,.6-.582Z" transform="translate(-2.652 -2.652)" fill="#21428e"/>
    <path id="Path_2524" data-name="Path 2524" d="M355.407,118.226a.565.565,0,0,1-.53-.782c.166-.435.364-.857.554-1.282a.32.32,0,0,0-.038-.38.572.572,0,0,1,.381-.975.424.424,0,0,0,.382-.295c.516-1.2,1.042-2.389,1.566-3.583.03-.068.061-.136.094-.2a.575.575,0,0,1,.55-.36.569.569,0,0,1,.543.37c.3.68.6,1.363.9,2.045.259.588.52,1.175.771,1.766a.355.355,0,0,0,.32.252.579.579,0,0,1,.416.993.3.3,0,0,0-.035.356c.157.348.308.7.464,1.047.213.479.142.832-.2.984-.367.162-.666-.015-.885-.521-.2-.47-.416-.936-.61-1.41a.37.37,0,0,0-.4-.269q-1.3.015-2.6,0a.353.353,0,0,0-.376.255c-.219.524-.451,1.042-.679,1.563A.6.6,0,0,1,355.407,118.226Zm2.994-5.717-.078-.01q-.469,1.068-.936,2.136c-.064.148.037.153.139.153H359.2c.114,0,.188-.024.128-.161Q358.864,113.569,358.4,112.509Z" transform="translate(-16.963 -14.761)" fill="#21428e"/>
  </g>
</svg>
