<svg id="Group_487" data-name="Group 487" xmlns="http://www.w3.org/2000/svg" xmlns:xlink="http://www.w3.org/1999/xlink" width="42.156" height="53.031" viewBox="0 0 42.156 53.031">
  <defs>
    <clipPath id="clip-path">
      <rect id="Rectangle_491" data-name="Rectangle 491" width="42.156" height="53.031" fill="#21428e"/>
    </clipPath>
  </defs>
  <g id="Group_486" data-name="Group 486" transform="translate(0 0)" clip-path="url(#clip-path)">
    <path id="Path_1634" data-name="Path 1634" d="M20.631,52.823c-1.669-1.948-3.529-4.008-5.453-6.14A157.968,157.968,0,0,1,3.84,33.206H3.832a21.558,21.558,0,0,1-2.866-5.8A21.078,21.078,0,1,1,42.148,21.07a21.285,21.285,0,0,1-.974,6.371,21.035,21.035,0,0,1-2.866,5.765A158.183,158.183,0,0,1,26.962,46.691c-1.916,2.124-3.784,4.192-5.453,6.14a.578.578,0,0,1-.806.064l-.072-.072m.439-41.086a9.323,9.323,0,0,0-9.333,9.333h-.008a9.349,9.349,0,1,0,9.341-9.333m-7.417,1.924a10.432,10.432,0,0,0-3.074,7.409h.008a10.481,10.481,0,1,0,3.066-7.409m2.379,32.256c1.78,1.972,3.513,3.9,5.038,5.661,1.533-1.764,3.266-3.689,5.046-5.653a158.292,158.292,0,0,0,11.25-13.381A19.925,19.925,0,0,0,21.07,1.15,19.958,19.958,0,0,0,2.06,27.066a20.413,20.413,0,0,0,2.723,5.477,156.76,156.76,0,0,0,11.25,13.373" transform="translate(0 -0.001)" fill="#21428e" fill-rule="evenodd"/>
  </g>
</svg>
