<svg id="Group_860" data-name="Group 860" xmlns="http://www.w3.org/2000/svg" xmlns:xlink="http://www.w3.org/1999/xlink" width="40.909" height="69.564" viewBox="0 0 40.909 69.564">
  <defs>
    <clipPath id="clip-path">
      <rect id="Rectangle_499" data-name="Rectangle 499" width="40.909" height="69.564" fill="#bcbcbc"/>
    </clipPath>
  </defs>
  <g id="Group_493" data-name="Group 493" clip-path="url(#clip-path)">
    <path id="Path_1646" data-name="Path 1646" d="M22.621,0a25.8,25.8,0,0,1,5.432,1.387,20.556,20.556,0,0,1,8.878,6.9A19.927,19.927,0,0,1,40.9,19.827c.055,1.845-.144,3.7-.253,5.547-.1,1.69-.238,3.377-.35,5.067q-.4,6.082-.794,12.164c-.153,2.388-.307,4.776-.434,7.166a23.459,23.459,0,0,1-1.714,8.717,18.148,18.148,0,0,1-10.414,9.826A17.594,17.594,0,0,1,12.531,67.7,17.827,17.827,0,0,1,2.118,53.007c-.472-4.057-.586-8.149-.841-12.227C.967,35.824.668,30.866.311,25.913.172,23.975-.009,22.035,0,20.1a19.325,19.325,0,0,1,2.1-8.754,20.519,20.519,0,0,1,9.82-9.552A20.222,20.222,0,0,1,17.822.1c.155-.021.306-.067.46-.1ZM36.229,54.983c.087-.338.146-.53.185-.727a47,47,0,0,0,.536-5.794c.178-2.454.3-4.912.455-7.368q.386-6.048.788-12.1c.115-1.734.255-3.467.362-5.2a27.76,27.76,0,0,0-.021-6.082A17.932,17.932,0,0,0,34.2,8.382a17.771,17.771,0,0,0-15.905-6.12A17.462,17.462,0,0,0,6.266,8.9,18.072,18.072,0,0,0,2.211,21.7c.135,2.547.342,5.09.507,7.635.152,2.343.285,4.687.436,7.03.261,4.055.517,8.11.8,12.163A51.619,51.619,0,0,0,4.4,53.789,16.229,16.229,0,0,0,21.487,67.254c6.16-.457,10.625-3.548,13.546-8.951a1.072,1.072,0,0,0-.054-1.233,35.652,35.652,0,0,0-7.818-8.579c-.575-.475-1.16-.937-1.732-1.416-.66-.552-.788-1.175-.368-1.7.394-.5,1.026-.5,1.689-.024.055.04.109.081.162.123,1.33,1.051,2.624,2.144,3.87,3.295a35.6,35.6,0,0,1,5.448,6.217" transform="translate(0)" fill="#bcbcbc"/>
    <path id="Path_1647" data-name="Path 1647" d="M41.422,34.756A10.351,10.351,0,0,0,37.992,36.7,13.016,13.016,0,1,0,58.959,48.987a12.754,12.754,0,0,0-2.033-9.372c-.609-.916-.594-1.573.012-1.958s1.212-.141,1.816.767a15.838,15.838,0,0,1,2.394,11.333,22.094,22.094,0,0,1-6.535,12.655,53.5,53.5,0,0,1-6.072,5.3c-.518.39-.514.609.008.983.866.619,1.039,1.247.59,1.8-.466.571-1.074.554-1.9-.072a80.475,80.475,0,0,1-9.823-8.2,22.225,22.225,0,0,1-6.186-11.754c-1.011-5.819.369-10.893,4.795-14.972A15.232,15.232,0,0,1,54.89,34.46a1.093,1.093,0,1,1-1.213,1.786A13.8,13.8,0,0,0,48.131,34a10.963,10.963,0,0,0-2.162-.109,2.571,2.571,0,0,0-2.42,1.84,2.718,2.718,0,0,0,.833,2.886,2.665,2.665,0,0,0,3.041.28c.235-.133.444-.31.67-.459a1.06,1.06,0,0,1,1.513.162,1.137,1.137,0,0,1-.182,1.529,4.915,4.915,0,0,1-6.183.356,4.854,4.854,0,0,1-1.832-5.225.575.575,0,0,0,.013-.508M38.52,60.1c.162.226.2.3.262.363a55.514,55.514,0,0,0,6.983,6.109c.312.24.512.136.768-.059a63.785,63.785,0,0,0,5.94-5.043c.392-.382.757-.79,1.135-1.186A15.876,15.876,0,0,1,38.52,60.1" transform="translate(-25.661 -26.291)" fill="#bcbcbc"/>
    <path id="Path_1648" data-name="Path 1648" d="M88.569,133.921c1.672,0,3.344-.006,5.016,0,1.157.006,1.58.527,1.423,1.673a6.415,6.415,0,0,1-4.916,5.734,6.5,6.5,0,0,1-7.987-5.346c-.018-.157-.048-.312-.07-.469-.148-1.05.3-1.584,1.382-1.591,1.717-.011,3.435,0,5.152,0m-.013,2.22c-1.175,0-2.351.016-3.526-.007-.539-.01-.7.135-.464.665a4.336,4.336,0,0,0,4,2.54,4.244,4.244,0,0,0,3.922-2.553c.221-.442.144-.661-.409-.65-1.175.022-2.35.007-3.526.006" transform="translate(-68.077 -111.169)" fill="#bcbcbc"/>
    <path id="Path_1649" data-name="Path 1649" d="M78.358,101.963a3.165,3.165,0,0,1,2.376,1.107,1.066,1.066,0,0,1-1.454,1.557c-.857-.594-.992-.592-1.9.023a1.057,1.057,0,0,1-1.467-.132,1.009,1.009,0,0,1,.011-1.415,3.059,3.059,0,0,1,2.438-1.14" transform="translate(-62.778 -84.643)" fill="#bcbcbc"/>
    <path id="Path_1650" data-name="Path 1650" d="M138.65,103.907a1.083,1.083,0,0,1-.582.914,1.051,1.051,0,0,1-1.149-.084c-.969-.64-1.03-.64-1.959-.014a1.065,1.065,0,0,1-1.481-1.511,3.169,3.169,0,0,1,4.9-.007,1.285,1.285,0,0,1,.267.7" transform="translate(-110.594 -84.713)" fill="#bcbcbc"/>
  </g>
</svg>
