<svg id="Group_859" data-name="Group 859" xmlns="http://www.w3.org/2000/svg" xmlns:xlink="http://www.w3.org/1999/xlink" width="61.555" height="68.556" viewBox="0 0 61.555 68.556">
  <defs>
    <clipPath id="clip-path">
      <rect id="Rectangle_498" data-name="Rectangle 498" width="61.555" height="68.556" fill="#bcbcbc"/>
    </clipPath>
  </defs>
  <g id="Group_491" data-name="Group 491" clip-path="url(#clip-path)">
    <path id="Path_1641" data-name="Path 1641" d="M41.957,0A10.186,10.186,0,0,1,46.3,2.07a9,9,0,0,1,3.267,6.9c.046,3.232.022,6.466,0,9.7a.864.864,0,0,0,.658.97,3.662,3.662,0,0,1,2.484,3.194,18.071,18.071,0,0,1,0,4.006,3.87,3.87,0,0,1-4,3.538,14.8,14.8,0,0,1-1.53,0c-.594-.044-.816.152-.808.787a8.218,8.218,0,0,1-2.9,6.491,8.084,8.084,0,0,1-5.468,2.106c-3.527.026-7.054.007-10.581.008-1.038,0-1.039,0-1.039,1.075,0,1.672-.006,3.345,0,5.017a1.7,1.7,0,0,0,1.388,1.925,9.441,9.441,0,0,0,6.012-.008,1.642,1.642,0,0,0,1.368-1.859c.01-.736-.01-1.472.009-2.207.024-.891.44-1.4,1.108-1.394s1.05.509,1.059,1.414c.014,1.291.017,1.274,1.292,1.473q5.549.865,11.094,1.761a9.864,9.864,0,0,1,4.694,2.519,15,15,0,0,1,4.746,8.463c.7,2.969,1.515,5.912,2.279,8.866.028.108.065.214.085.323a1.108,1.108,0,0,1-.741,1.379,1.048,1.048,0,0,1-1.317-.815c-.332-1.155-.618-2.324-.922-3.488-.236-.905-.482-1.808-.7-2.718a.644.644,0,0,0-.732-.584q-2.6.031-5.19,0c-.514-.007-.642.213-.638.681.016,1.717.006,3.434.005,5.151,0,.223.008.447-.015.668-.076.74-.505,1.159-1.142,1.132a1.076,1.076,0,0,1-1.014-1.182c-.023-.78-.007-1.561-.009-2.341,0-.892,0-.895-.872-.9H23.884c-.222,0-.445.01-.665-.011a1.074,1.074,0,0,1-.068-2.145,5.877,5.877,0,0,1,.863-.032q12.045,0,24.09,0c1.007,0,1.008,0,1.008-1.036,0-.736-.015-1.472,0-2.207.012-.436-.162-.61-.59-.581-.309.021-.621,0-.931,0H13.39c-.948,0-.949,0-.95.947,0,.691.033,1.385-.01,2.073-.037.606.165.828.787.813,1.53-.037,3.061-.012,4.591-.011.2,0,.4-.007.6.009a1.167,1.167,0,0,1,1.185,1.116,1.1,1.1,0,0,1-1.22,1.057c-1.73.016-3.461.028-5.19,0-.594-.011-.783.192-.752.772.041.756.015,1.516.008,2.274-.009.906-.4,1.394-1.085,1.385s-1.081-.484-1.087-1.4c-.013-1.806-.031-3.613.008-5.418.014-.659-.215-.837-.843-.822q-2.428.057-4.857,0a.778.778,0,0,0-.907.715c-.467,1.9-.971,3.8-1.467,5.694a3.088,3.088,0,0,1-.241.69.974.974,0,0,1-1.187.5A.969.969,0,0,1,0,67.539a2.375,2.375,0,0,1,.1-.656c.9-3.494,1.767-7,2.725-10.476a13.376,13.376,0,0,1,7.855-9.127,16.223,16.223,0,0,1,3.907-.74q4.392-.733,8.8-1.37c.665-.1.875-.362.846-1.03-.054-1.246-.029-2.5-.009-3.745.007-.458-.154-.613-.615-.632a8.463,8.463,0,0,1-8.366-7.334,5.845,5.845,0,0,1-.069-1.331c.036-.574-.209-.733-.741-.719a13.2,13.2,0,0,1-2.19-.06,3.7,3.7,0,0,1-3.374-3.345,16.092,16.092,0,0,1,.014-4.333,3.615,3.615,0,0,1,2.508-3.021.781.781,0,0,0,.592-.88c-.014-3.1-.009-6.2-.007-9.3A9.194,9.194,0,0,1,19.282.1c.106-.026.209-.067.313-.1Zm-11.2,37.579q3.493,0,6.987,0a6.49,6.49,0,0,0,1.391-.093,6.2,6.2,0,0,0,5.07-6.175c.036-3.433.013-6.867.007-10.3a3.2,3.2,0,0,0-.1-.858c-.406-1.436-.846-2.862-1.246-4.3a.661.661,0,0,0-.766-.55c-1.109.021-2.219.027-3.327,0-.508-.013-.647.189-.64.67.022,1.493.01,2.988.007,4.482a2.314,2.314,0,0,1-2.835,2.567,24.293,24.293,0,0,1-2.562-.377c-4.059-.878-7.278-2.877-8.945-6.9a.624.624,0,0,0-.658-.44c-.687.013-1.376-.019-2.063.008-.725.029-1.591-.292-2.136.144s-.536,1.333-.723,2.036a14.059,14.059,0,0,0-.878,3.486c-.022,3.434-.035,6.868,0,10.3a6.189,6.189,0,0,0,6.366,6.3c2.351.012,4.7,0,7.054,0m0,18.43c5.857,0,11.713-.009,17.57.013.619,0,.8-.19.79-.8-.034-1.85-.021-3.7-.006-5.552,0-.427-.108-.628-.574-.7-2.236-.329-4.469-.68-6.7-1.067-.494-.086-.652.052-.775.506a7.007,7.007,0,0,1-4.5,4.909,15.736,15.736,0,0,1-9.015.763c-3.407-.7-6.219-2.163-7.153-5.9-.081-.322-.256-.34-.542-.293-2.252.37-4.5.746-6.763,1.067-.564.08-.671.323-.665.827.022,1.784.008,3.568.009,5.352,0,.876,0,.878.887.878H30.765M25.116,2.055c-1.264,0-2.528-.018-3.791,0a6.959,6.959,0,0,0-7.046,5.714,28.625,28.625,0,0,0-.118,5c-.007.366.234.428.534.428,2.727,0,5.454-.006,8.181,0,.409,0,.546-.17.538-.562-.016-.735-.01-1.471,0-2.206A3.866,3.866,0,0,1,26.606,6.63,13.23,13.23,0,0,1,29.06,6.54c.451,0,.639-.156.631-.623-.02-1.069-.023-2.14,0-3.209.011-.488-.155-.672-.652-.662-1.308.026-2.616.009-3.924.009m11.665,0c-1.618,0-2.949.012-4.279-.007-.442-.006-.651.122-.641.6q.033,1.637,0,3.276c-.009.478.2.627.641.61.531-.02,1.064-.012,1.6,0a3.927,3.927,0,0,1,4.042,4.114c0,.646.021,1.294-.006,1.939-.019.465.156.624.617.622,2.66-.015,5.321-.019,7.981,0,.545,0,.683-.217.673-.715-.025-1.225.007-2.452-.019-3.677a6.93,6.93,0,0,0-6.112-6.669c-1.595-.176-3.19-.033-4.5-.1M30.774,8.726v0c-1.131,0-2.261-.012-3.392,0a1.7,1.7,0,0,0-1.814,1.583c-.14.885-.006,1.781-.067,2.669a5.419,5.419,0,0,0,1.191,3.667c2.194,2.977,5.347,3.937,8.827,4.188.153.011.352.023.419-.137a3.607,3.607,0,0,0,.086-1.579c-.014-.4-.4-.361-.655-.445A10.847,10.847,0,0,1,29.905,14.2a.98.98,0,0,1,0-1.19,1.024,1.024,0,0,1,.973-.462,1.315,1.315,0,0,1,.945.663,10.355,10.355,0,0,0,3.01,2.887c.33.194.695.579,1.073.359.322-.188.11-.66.14-1,.025-.287.005-.579,0-.869,0-1.27.023-2.541-.01-3.811a1.831,1.831,0,0,0-2.069-2.047c-1.064-.006-2.128,0-3.192,0m.032,43.553a14.459,14.459,0,0,0,5.4-1.136,4.845,4.845,0,0,0,2.426-2.287c.657-1.255.557-1.424-.846-1.593-.4-.049-.645.007-.816.435a3.47,3.47,0,0,1-2.124,1.992,11.312,11.312,0,0,1-8.248-.043,3.2,3.2,0,0,1-1.912-1.759.846.846,0,0,0-1.165-.59,1.733,1.733,0,0,1-.456.087c-.571-.016-.615.278-.458.725a4.922,4.922,0,0,0,2.736,3.026,14.293,14.293,0,0,0,5.466,1.143M10.26,54.314c0-1.2,0-2.4,0-3.606,0-.214.1-.5-.1-.625-.222-.14-.4.111-.574.229a12.018,12.018,0,0,0-5.025,7.956c-.1.476.182.468.485.469,1.506,0,3.012-.016,4.517.011.57.01.722-.231.711-.76-.025-1.224-.008-2.448-.008-3.673m41.032-.052c0,1.247.019,2.494-.009,3.739-.012.544.172.755.726.745,1.461-.026,2.923-.023,4.384,0,.527.008.754-.126.56-.689-.123-.356-.187-.732-.287-1.1a11.523,11.523,0,0,0-4.76-6.694c-.154-.1-.315-.321-.522-.18-.155.106-.09.33-.091.5,0,1.224,0,2.448,0,3.673M15.16,24.9c0-.913-.012-1.826.005-2.739.007-.413-.122-.625-.566-.613-.664.019-1.33-.013-1.993.015a1.628,1.628,0,0,0-1.626,1.675q-.035,1.636,0,3.273a1.641,1.641,0,0,0,1.644,1.667c.663.031,1.329,0,1.993.015.4.011.553-.157.546-.556-.015-.913,0-1.826,0-2.739m31.232-.066c0,.935.01,1.871,0,2.805-.006.4.148.565.547.555.664-.017,1.33.017,1.993-.015a1.641,1.641,0,0,0,1.643-1.668q.039-1.636,0-3.273a1.639,1.639,0,0,0-1.694-1.68c-.6-.021-1.2.015-1.794-.015-.506-.025-.723.146-.7.685.034.867.009,1.737.01,2.6M14.153,17.3c0,.488,0,.977,0,1.465,0,.266-.019.584.363.587s.84.187,1.008-.363c.33-1.082.646-2.168.961-3.254.059-.2.08-.43-.232-.417-.656.027-1.411-.242-1.938.129-.415.292-.109,1-.163,1.519a2.926,2.926,0,0,0,0,.333m33.246.058h0c0-.511,0-1.021,0-1.532,0-.312-.1-.516-.452-.513q-.8.007-1.59,0c-.259,0-.379.105-.3.367.33,1.128.645,2.261,1.008,3.378.161.5.632.3.981.294.383,0,.352-.329.355-.593.007-.466,0-.933,0-1.4" transform="translate(0)" fill="#bcbcbc"/>
    <path id="Path_1642" data-name="Path 1642" d="M149.056,177.283a5.818,5.818,0,0,1-4.9-2.64A1.088,1.088,0,0,1,144.3,173c.538-.383,1.1-.24,1.593.41a3.742,3.742,0,0,0,6.3,0c.5-.653,1.052-.8,1.592-.417s.61.97.154,1.648a5.8,5.8,0,0,1-4.887,2.642" transform="translate(-118.273 -141.9)" fill="#bcbcbc"/>
    <path id="Path_1643" data-name="Path 1643" d="M166.941,141.108c0-.423-.031-.849.007-1.269a1.075,1.075,0,0,1,1.075-1.059,1.09,1.09,0,0,1,1.069,1.068,4.457,4.457,0,0,1,.013.735.945.945,0,0,0,.458,1.012.911.911,0,0,1,.4,1.051,1.014,1.014,0,0,1-.865.816,3.252,3.252,0,0,1-1.058.043,1.145,1.145,0,0,1-1.106-1.194c-.024-.4,0-.8,0-1.2h.008" transform="translate(-137.243 -113.973)" fill="#bcbcbc"/>
    <path id="Path_1644" data-name="Path 1644" d="M124.7,138.045c0,.31.02.622,0,.931a1.029,1.029,0,0,1-1.029,1.007.986.986,0,0,1-1.025-.94,14,14,0,0,1,0-2.06,1.03,1.03,0,0,1,2.05.064c.034.329.006.665.007,1" transform="translate(-100.804 -111.758)" fill="#bcbcbc"/>
    <path id="Path_1645" data-name="Path 1645" d="M211.712,137.953c0-.288-.018-.578,0-.865a1.046,1.046,0,0,1,1.016-1.021,1.029,1.029,0,0,1,1.05.984,17.231,17.231,0,0,1,0,1.928,1.031,1.031,0,0,1-2.062-.029c-.023-.331,0-.665,0-1" transform="translate(-174.059 -111.745)" fill="#bcbcbc"/>
  </g>
</svg>
