<svg xmlns="http://www.w3.org/2000/svg" xmlns:xlink="http://www.w3.org/1999/xlink" width="66.742" height="71.928" viewBox="0 0 66.742 71.928">
  <defs>
    <clipPath id="clip-path">
      <rect id="Rectangle_497" data-name="Rectangle 497" width="66.742" height="71.928" fill="#bcbcbc"/>
    </clipPath>
  </defs>
  <g id="Group_490" data-name="Group 490" transform="translate(0 0)">
    <g id="Group_489" data-name="Group 489" transform="translate(0 0)" clip-path="url(#clip-path)">
      <path id="Path_1635" data-name="Path 1635" d="M45.024,0a10.5,10.5,0,0,1,5.56,3.069,9.9,9.9,0,0,1,2.585,6.3,1.207,1.207,0,0,1-1.143,1.4c-.636.007-1.089-.493-1.141-1.259a7.479,7.479,0,0,0-7.74-7.345q-9.792-.046-19.584,0a7.476,7.476,0,0,0-7.7,7.8c-.005,2.948.024,5.9-.018,8.844-.011.76.335.83.934.81.566-.019,1.039.047,1.026-.8a30.733,30.733,0,0,1,.07-4.7,3.653,3.653,0,0,1,3.73-3.217c.983-.008,1.966.011,2.948-.006a1.468,1.468,0,0,1,1.267.607,7,7,0,0,0,5.868,2.761,35.593,35.593,0,0,0,4.695-.1,6.727,6.727,0,0,0,4.453-2.549,1.689,1.689,0,0,1,1.5-.722c.864.033,1.731.006,2.6.008a3.784,3.784,0,0,1,4.03,3.981c.023,1.31.03,2.621-.005,3.93-.016.611.185.824.8.807,1.129-.031,1.13,0,1.13-1.159s0-2.34,0-3.51c.005-.944.408-1.479,1.112-1.5S53.172,14,53.18,14.97c.012,1.474.017,2.948,0,4.422a1.271,1.271,0,0,0,.513,1.138,3.759,3.759,0,0,1,1.5,3.108c-.01.819-.055,1.642.011,2.456A4.148,4.148,0,0,1,50.837,30.6c-.351.006-.7.029-1.052,0-.591-.049-.822.162-.841.788a8.572,8.572,0,0,1-8.74,8.483q-4.983.04-9.967-.008c-.72-.007-.922.221-.9.923.045,1.824.023,3.65.009,5.475a1,1,0,0,0,.459.945q1.573,1.056,3.109,2.166a.689.689,0,0,0,.935-.008q1.537-1.108,3.11-2.165a.932.932,0,0,0,.444-.881c-.019-.818-.012-1.638,0-2.457s.458-1.342,1.12-1.33c.643.012,1.068.512,1.082,1.3.011.655.038,1.313-.007,1.965-.038.553.168.793.708.888q3.935.694,7.862,1.435a71.061,71.061,0,0,1,9.7,2.19,10,10,0,0,1,7.26,8.732c.524,3.8,1.067,7.589,1.6,11.384.116.824-.216,1.377-.887,1.489-.7.117-1.211-.316-1.337-1.186-.566-3.908-1.118-7.818-1.684-11.726a7.4,7.4,0,0,0-5.264-6.39c-.487-.166-.981-.312-1.467-.478-.354-.121-.541-.029-.532.368,0,.21,0,.421,0,.631q0,8.388,0,16.776a5.329,5.329,0,0,1-.1,1.184,1,1,0,0,1-1.138.825,1.039,1.039,0,0,1-1.02-.976,5.2,5.2,0,0,1-.019-.771c0-5.943-.016-11.886.018-17.829,0-.756-.2-1.061-.957-1.187-2.72-.453-5.432-.959-8.139-1.48a.965.965,0,0,0-1.079.405c-1.1,1.4-2.214,2.783-3.325,4.171a2.8,2.8,0,0,1-4.53.275,1.84,1.84,0,0,0-.632-.543c-.172.212-.09.454-.091.674-.008,2.059,0,4.118-.007,6.177a3.312,3.312,0,0,1-.053.767,1.065,1.065,0,0,1-1.1.9,1.048,1.048,0,0,1-1.091-.906,5.7,5.7,0,0,1-.054-1.118c0-2.15,0-4.3,0-6.537a2.827,2.827,0,0,0-.883.742,2.741,2.741,0,0,1-4.235-.259q-1.747-2.152-3.458-4.334a.96.96,0,0,0-1.075-.41c-2.708.522-5.42,1.023-8.14,1.476-.746.124-.973.409-.969,1.178.036,5.966.02,11.933.019,17.9a4.766,4.766,0,0,1-.017.7,1.04,1.04,0,0,1-1.013.984,1.009,1.009,0,0,1-1.16-.882,6.253,6.253,0,0,1-.089-1.186q-.008-8.458,0-16.917c0-.951-.007-.926-.945-.669a8.374,8.374,0,0,0-5.178,3.462A9.87,9.87,0,0,0,3.8,59.837q-.769,5.449-1.551,10.9c-.125.866-.64,1.3-1.346,1.175-.669-.116-.993-.665-.876-1.5C.6,66.364,1.108,62.3,1.768,58.271A9.473,9.473,0,0,1,8.1,50.594a56.353,56.353,0,0,1,10.489-2.48c2.621-.477,5.241-.964,7.863-1.433.489-.087.711-.279.7-.827q-.055-2.561,0-5.124c.013-.621-.151-.848-.817-.869a8.517,8.517,0,0,1-8.025-5.649,8.875,8.875,0,0,1-.515-2.887c-.011-.556-.228-.747-.76-.725a11.587,11.587,0,0,1-1.96-.083,4,4,0,0,1-3.51-3.855c-.02-1.006,0-2.012-.009-3.018a3.757,3.757,0,0,1,1.493-3.109,1.282,1.282,0,0,0,.517-1.136c-.014-2.995.055-5.991-.021-8.984A9.925,9.925,0,0,1,21.592.059.566.566,0,0,0,21.719,0ZM20.075,23.234c0,2.666-.008,5.333,0,8a6.2,6.2,0,0,0,6.35,6.348q6.947.016,13.893,0a6.2,6.2,0,0,0,6.345-6.353c.01-3.134,0-6.268,0-9.4,0-2.292,0-4.584,0-6.876a1.586,1.586,0,0,0-1.734-1.825c-.56-.032-1.124.015-1.683-.02a1.363,1.363,0,0,0-1.163.494,8.817,8.817,0,0,1-5.914,2.868,38.945,38.945,0,0,1-5.4.015,8.007,8.007,0,0,1-5.389-2.231,3.483,3.483,0,0,0-3.16-1.14c-.092.012-.187,0-.28,0-1.332.051-1.867.59-1.869,1.909q-.007,4.1,0,8.21m-2.3,1.922c0-.865-.012-1.73,0-2.594.009-.476-.186-.687-.664-.671s-.982-.009-1.472.011a1.767,1.767,0,0,0-1.869,1.847c-.04.886-.042,1.778,0,2.664a1.867,1.867,0,0,0,2,1.9c.42.01.844-.028,1.261.01.607.056.77-.228.749-.783-.03-.794-.008-1.589-.009-2.384m31.182-.042v1.262c0,2,0,2,2.032,1.937a1.816,1.816,0,0,0,1.945-1.722,19.9,19.9,0,0,0,0-3.011A1.7,1.7,0,0,0,51.136,21.9c-.49-.023-.982.008-1.472-.014-.507-.023-.721.186-.707.7.022.841.006,1.683,0,2.524m-21.2,23.616c-.48.093-.957.214-1.442.273-.525.063-.434.278-.194.577.892,1.11,1.788,2.217,2.669,3.336.366.466.7.452,1.092.034.415-.443.844-.874,1.289-1.286.341-.315.357-.541-.055-.814-.914-.606-1.808-1.243-2.711-1.867a1.084,1.084,0,0,0-.648-.252m13.045.581c.041-.151-.013-.243-.109-.252-.806-.077-1.6-.619-2.422-.033-.874.624-1.751,1.244-2.646,1.838-.423.281-.373.5-.042.811.445.412.875.842,1.289,1.286s.734.4,1.091-.056c.866-1.1,1.75-2.187,2.624-3.281.087-.109.158-.229.215-.311" transform="translate(0)" fill="#bcbcbc"/>
      <path id="Path_1636" data-name="Path 1636" d="M226.654,348.032c-.63,0-1.26.019-1.889,0a1.138,1.138,0,0,1-1.181-1.056,1.121,1.121,0,0,1,1.082-1.15,23.384,23.384,0,0,1,3.981-.018,1.123,1.123,0,0,1,1.139,1.17,1.144,1.144,0,0,1-1.243,1.06c-.629.015-1.259,0-1.889,0Z" transform="translate(-181.649 -280.884)" fill="#bcbcbc"/>
      <path id="Path_1637" data-name="Path 1637" d="M154.221,161.3a6.241,6.241,0,0,1-5.127-2.688c-.527-.734-.486-1.368.078-1.8s1.173-.278,1.729.444a3.95,3.95,0,0,0,6.6,0c.557-.723,1.159-.879,1.729-.446a1.158,1.158,0,0,1,.12,1.74,6.185,6.185,0,0,1-5.125,2.746" transform="translate(-120.829 -127.206)" fill="#bcbcbc"/>
      <path id="Path_1638" data-name="Path 1638" d="M171.808,126.425c0-.442-.036-.888.008-1.326a1.1,1.1,0,0,1,1.159-1.064,1.118,1.118,0,0,1,1.1,1.061,3.979,3.979,0,0,1,.019.7,1.248,1.248,0,0,0,.526,1.249,1.06,1.06,0,0,1-.327,1.851,1.651,1.651,0,0,1-2.5-1.63c0-.279,0-.559,0-.838h.017" transform="translate(-139.571 -100.771)" fill="#bcbcbc"/>
      <path id="Path_1639" data-name="Path 1639" d="M129.681,115.348c0,.327.022.657-.005.982a1.038,1.038,0,0,1-1.107,1.023,1.016,1.016,0,0,1-1.067-.989,18.255,18.255,0,0,1,0-2.034,1.09,1.09,0,0,1,2.179.035c.024.326,0,.655,0,.982" transform="translate(-103.564 -92.04)" fill="#bcbcbc"/>
      <path id="Path_1640" data-name="Path 1640" d="M218.72,115.317c0,.327.021.656,0,.982a1.044,1.044,0,0,1-1.084,1.051,1.025,1.025,0,0,1-1.1-1.031c-.034-.653-.033-1.31,0-1.964a1.064,1.064,0,0,1,1.074-1.071,1.1,1.1,0,0,1,1.105,1.051c.028.325,0,.654.006.982" transform="translate(-175.904 -92.038)" fill="#bcbcbc"/>
    </g>
  </g>
</svg>
