<svg xmlns="http://www.w3.org/2000/svg" width="16.882" height="16.54" viewBox="0 0 16.882 16.54">
  <path id="Path_2526" data-name="Path 2526" d="M2280.352,3176.207a4.794,4.794,0,0,0-4.872-4.706.4.4,0,1,0,.011.8,4,4,0,0,1,4.063,3.924.4.4,0,1,0,.8-.015m-5.238-2.7a.4.4,0,0,0,.408.395,2.4,2.4,0,0,1,2.437,2.352.4.4,0,1,0,.8-.013,3.2,3.2,0,0,0-3.25-3.135.4.4,0,0,0-.393.4m.028,1.6a.4.4,0,0,0,.406.392.8.8,0,0,1,.813.786.4.4,0,0,0,.8-.015,1.6,1.6,0,0,0-1.625-1.565.4.4,0,0,0-.393.4m8.431,6.141-2.869-2.015a1.229,1.229,0,0,0-.938-.153l-.888.274c-.639.659-1.954,1.739-5.058-1.259s-2.07-4.345-1.432-5.007l.242-.9a1.233,1.233,0,0,0-.183-.936l-2.114-2.795a.663.663,0,0,0-.794-.188l-1.409.7c-2.41,2.5-1,7.494,3.274,11.624s9.323,5.365,11.732,2.872l.652-1.437a.664.664,0,0,0-.214-.784" transform="translate(-2266.956 -3168.207)" fill="#e6e6e6"/>
</svg>
