<svg id="Group_834" data-name="Group 834" xmlns="http://www.w3.org/2000/svg" xmlns:xlink="http://www.w3.org/1999/xlink" width="94.505" height="74.041" viewBox="0 0 94.505 74.041">
  <defs>
    <clipPath id="clip-path">
      <rect id="Rectangle_486" data-name="Rectangle 486" width="94.505" height="74.041" fill="none"/>
    </clipPath>
  </defs>
  <g id="Group_475" data-name="Group 475" clip-path="url(#clip-path)">
    <path id="Path_1620" data-name="Path 1620" d="M43.816,14.833c.382-2.413.769-4.825,1.143-7.24q.488-3.155.949-6.313a1.347,1.347,0,0,1,2.691,0Q49.543,7.641,50.5,14c.042.28.123.554.185.831a13.486,13.486,0,0,0,.394,2.679c.335,2.391.68,4.78,1,7.172.071.539.44.6.847.729A20.251,20.251,0,0,1,67.208,40.659a16.444,16.444,0,0,1,.464,5.113c-.046.679.171.929.8,1.1q12,3.258,23.979,6.561c1.439.394,2.088,1.1,2.047,2.24a2.285,2.285,0,0,1-.109.656c-.406,1.176-3.86,3.5-5.115,3.387q-3.517-.307-7.025-.707c-.587-.066-.926,0-.809.685a6.96,6.96,0,0,0-2.65-.108c.121-.742-.234-.945-.939-1.009q-6.651-.6-13.294-1.294a1.356,1.356,0,0,0-1.369.563,20.444,20.444,0,0,1-31.906-.034,1.371,1.371,0,0,0-1.374-.569c-4.524.465-9.048.926-13.577,1.339-.795.073-.566.583-.627,1.006a6.952,6.952,0,0,0-2.648.1c.064-.537-.052-.8-.71-.713-2.113.264-4.239.42-6.351.694a3.615,3.615,0,0,1-3.175-.858A15.848,15.848,0,0,0,1.08,57.489a2.16,2.16,0,0,1,.771-4.008q9.455-2.6,18.906-5.218c1.774-.49,3.54-1.012,5.322-1.47.548-.141.777-.319.753-.946A20.449,20.449,0,0,1,41.766,25.361c.344-.1.582-.211.634-.589q.507-3.631,1.021-7.261a11.942,11.942,0,0,0,.394-2.678M47.3,62.781A17.754,17.754,0,1,0,29.506,45.225,17.754,17.754,0,0,0,47.3,62.781M3.507,55.822a3.049,3.049,0,0,0,3.12,1.1c7.267-.785,14.544-1.476,21.821-2.172.7-.067.692-.3.418-.816a14.57,14.57,0,0,1-1.4-3.832c-.153-.731-.421-.821-1.085-.632-3.907,1.109-7.825,2.178-11.738,3.263-3.689,1.023-7.376,2.05-11.136,3.095m87.523,0c-1.708-.467-3.3-.9-4.886-1.337-6-1.647-12-3.279-17.993-4.962-.753-.211-.986-.06-1.141.675a14.35,14.35,0,0,1-1.378,3.742c-.3.563-.306.766.456.837,7.345.684,14.691,1.372,22.025,2.168a3.087,3.087,0,0,0,2.918-1.123M47.351,11.119l-.2-.008q-.992,6.568-1.985,13.136c-.062.408.121.49.487.442a11.565,11.565,0,0,1,3.138,0c.526.074.593-.137.526-.577q-.992-6.494-1.97-12.991" transform="translate(0 0)" fill="#21428e"/>
    <path id="Path_1621" data-name="Path 1621" d="M158.288,260.925a4.2,4.2,0,1,1-4.144-4.233,4.225,4.225,0,0,1,4.144,4.233m-2.689.017a1.519,1.519,0,1,0-1.481,1.444,1.512,1.512,0,0,0,1.481-1.444" transform="translate(-111.608 -191.148)" fill="#f2bf33"/>
    <path id="Path_1622" data-name="Path 1622" d="M187.295,260.91a4.2,4.2,0,1,1,4.2,4.28,4.217,4.217,0,0,1-4.2-4.28m4.21-1.442a1.461,1.461,0,1,0,1.507,1.521,1.513,1.513,0,0,0-1.507-1.521" transform="translate(-139.47 -191.149)" fill="#f2bf33"/>
    <path id="Path_1623" data-name="Path 1623" d="M299.931,233.145a6.955,6.955,0,0,1,2.65.108c2.53,1.283,3.463,3.669,2.307,5.9a4.192,4.192,0,0,1-7.833-1.019,4.158,4.158,0,0,1,1.959-4.494c.3-.178.611-.33.917-.494m2.717,4.107a1.438,1.438,0,0,0-1.481-1.513,1.49,1.49,0,0,0-1.534,1.486,1.564,1.564,0,0,0,1.5,1.547,1.517,1.517,0,0,0,1.511-1.519" transform="translate(-221.136 -173.557)" fill="#f2bf33"/>
    <path id="Path_1624" data-name="Path 1624" d="M42.993,233.252a6.954,6.954,0,0,1,2.648-.1c1.823.833,3,2.128,2.938,4.248a4.158,4.158,0,0,1-3.66,4.013,4.2,4.2,0,0,1-2.689-7.764c.243-.149.507-.263.762-.393m2.9,3.974a1.436,1.436,0,0,0-1.508-1.486,1.508,1.508,0,0,0-1.519,1.509,1.587,1.587,0,0,0,1.54,1.523,1.518,1.518,0,0,0,1.487-1.546" transform="translate(-29.932 -173.558)" fill="#f2bf33"/>
    <path id="Path_1625" data-name="Path 1625" d="M144.28,58.077a11.958,11.958,0,0,1-.394,2.678q-3.673,0-7.346-.007c-1.07,0-1.6-.434-1.625-1.3-.023-.917.516-1.377,1.638-1.378q3.863,0,7.727,0" transform="translate(-100.465 -43.244)" fill="#f2bf33"/>
    <path id="Path_1626" data-name="Path 1626" d="M198.909,60.754a13.489,13.489,0,0,1-.394-2.679q3.863,0,7.726,0c1.119,0,1.662.464,1.639,1.378-.022.862-.556,1.294-1.626,1.3q-3.672.008-7.344.007" transform="translate(-147.825 -43.243)" fill="#f2bf33"/>
    <path id="Path_1627" data-name="Path 1627" d="M138.591,140.8c0-1.145,0-2.29,0-3.434,0-1.463.741-1.994,2.156-1.518a29.664,29.664,0,0,0,19.228.053c1.642-.539,2.31-.063,2.31,1.683,0,2.29-.028,4.58.014,6.869a1.559,1.559,0,0,1-1.194,1.7,32.27,32.27,0,0,1-13.675,1.656,37,37,0,0,1-7.507-1.6,1.655,1.655,0,0,1-1.348-1.878c.071-1.172.016-2.353.016-3.529m2.677.359c0,.743.024,1.349-.008,1.952a.693.693,0,0,0,.561.83A29.691,29.691,0,0,0,159,143.96a.746.746,0,0,0,.623-.879c-.032-1.082-.044-2.166,0-3.247.03-.7-.059-.92-.87-.7a32.448,32.448,0,0,1-15.185.378c-.739-.153-1.672-.775-2.148-.4s-.09,1.434-.15,2.053" transform="translate(-103.186 -101.035)" fill="#f2bf33"/>
  </g>
</svg>
