<svg xmlns="http://www.w3.org/2000/svg" width="93.139" height="14.404" viewBox="0 0 93.139 14.404">
  <g id="Stars" transform="translate(0 0)">
    <path id="Shape" d="M7.581,11.576,12.266,14.4l-1.243-5.33,4.139-3.586L9.711,5.026,7.581,0,5.451,5.026,0,5.489,4.139,9.075,2.9,14.4Z" transform="translate(0 0)" fill="#f2bf33"/>
    <path id="Shape_Copy" data-name="Shape Copy" d="M7.581,11.576,12.266,14.4l-1.243-5.33,4.139-3.586L9.711,5.026,7.581,0,5.451,5.026,0,5.489,4.139,9.075,2.9,14.4Z" transform="translate(19.494 0)" fill="#f2bf33"/>
    <path id="Shape_Copy_2" data-name="Shape Copy 2" d="M7.581,11.576,12.266,14.4l-1.243-5.33,4.139-3.586L9.711,5.026,7.581,0,5.451,5.026,0,5.489,4.139,9.075,2.9,14.4Z" transform="translate(38.988 0)" fill="#f2bf33"/>
    <path id="Shape_Copy_3" data-name="Shape Copy 3" d="M7.581,11.576,12.266,14.4l-1.243-5.33,4.139-3.586L9.711,5.026,7.581,0,5.451,5.026,0,5.489,4.139,9.075,2.9,14.4Z" transform="translate(58.483 0)" fill="#f2bf33"/>
    <path id="Shape_Copy_4" data-name="Shape Copy 4" d="M7.581,11.576,12.266,14.4l-1.243-5.33,4.139-3.586L9.711,5.026,7.581,0,5.451,5.026,0,5.489,4.139,9.075,2.9,14.4Z" transform="translate(77.977 0)" fill="#8c8c98"/>
  </g>
</svg>
