<svg xmlns="http://www.w3.org/2000/svg" width="42.638" height="42.634" viewBox="0 0 42.638 42.634">
  <g id="Group_862" data-name="Group 862" transform="translate(-2461.889 -565.088)">
    <path id="Path_2607" data-name="Path 2607" d="M2483.17,579.382h-19.086c-.6,0-.6,0-.6.606q0,10.425,0,20.85a2.181,2.181,0,0,0,2.472,2.465h18.954a3.094,3.094,0,0,1,.528.015.68.68,0,0,1,.613.694.7.7,0,0,1-.6.748,2.914,2.914,0,0,1-.44.014q-9.653,0-19.307,0a3.508,3.508,0,0,1-3.689-3.677q0-14,0-27.99a3.507,3.507,0,0,1,3.659-3.663c.97,0,1.94-.018,2.909.008.4.011.523-.13.491-.509-.027-.306-.008-.617,0-.925a2.851,2.851,0,0,1,5.7,0c0,.353.01.706,0,1.058-.008.254.074.376.35.375q2.447-.011,4.893,0c.243,0,.348-.092.342-.338-.01-.338,0-.676,0-1.014a2.852,2.852,0,1,1,5.7.02c0,.338.006.676,0,1.014,0,.223.094.317.317.317q2.468,0,4.937,0c.253,0,.334-.114.33-.35-.009-.382-.007-.764,0-1.146a2.852,2.852,0,0,1,5.7,0,7.542,7.542,0,0,1,0,.925c-.045.435.093.6.555.58,1-.035,2-.016,3-.009a3.5,3.5,0,0,1,3.5,3.505q.011,9.1.006,18.2a.812.812,0,0,1-.42.849.713.713,0,0,1-.752-.064.883.883,0,0,1-.306-.826q0-5.532,0-11.064c0-.669,0-.669-.669-.669Zm.006-1.473h19c.133,0,.265-.009.4,0,.271.02.359-.108.357-.367-.008-1.5.02-3-.014-4.5a1.993,1.993,0,0,0-1.831-2.077,31.18,31.18,0,0,0-3.478-.049c-.221,0-.262.142-.261.324q0,.529,0,1.058a2.852,2.852,0,0,1-5.7,0c0-.338-.01-.676,0-1.014.009-.258-.083-.372-.355-.371q-2.446.011-4.893,0c-.246,0-.344.1-.337.342.009.367,0,.735,0,1.1a2.852,2.852,0,0,1-5.7.014c-.005-.353-.012-.706,0-1.058.01-.269-.067-.4-.369-.4q-2.424.014-4.848,0c-.3,0-.379.133-.369.4.013.367.008.735,0,1.1a2.852,2.852,0,0,1-5.7-.013c-.006-.353-.018-.706,0-1.058.019-.325-.1-.441-.428-.435-.926.017-1.851,0-2.777.006a2.159,2.159,0,0,0-2.379,2.38c0,1.337,0,2.674,0,4.011,0,.6,0,.6.6.6Zm-12.634-7.732h0c0,.661-.009,1.321,0,1.982a1.382,1.382,0,1,0,2.752,0c.013-1.321.005-2.642,0-3.963a1.505,1.505,0,0,0-.249-.876,1.325,1.325,0,0,0-1.5-.562,1.359,1.359,0,0,0-1,1.345C2470.525,568.8,2470.542,569.487,2470.542,570.177Zm11.284-.041c0,.675-.009,1.351,0,2.026a1.382,1.382,0,1,0,2.752,0q.019-1.981,0-3.963a1.445,1.445,0,0,0-1.357-1.5,1.414,1.414,0,0,0-1.395,1.506C2481.817,568.844,2481.826,569.49,2481.826,570.136Zm11.288.043h0c0,.646,0,1.292,0,1.937a1.546,1.546,0,0,0,.273.956,1.334,1.334,0,0,0,1.515.517,1.413,1.413,0,0,0,.965-1.383c.014-1.35.007-2.7,0-4.051a1.427,1.427,0,0,0-.272-.867,1.321,1.321,0,0,0-1.471-.524,1.36,1.36,0,0,0-1,1.347C2493.1,568.8,2493.115,569.489,2493.115,570.179Z" transform="translate(0)" fill="#21428e" stroke="#fff" stroke-width="0.25"/>
    <path id="Path_2608" data-name="Path 2608" d="M2665.627,778.036a9.2,9.2,0,1,1,9.246,9.177A9.161,9.161,0,0,1,2665.627,778.036Zm1.476-.081a7.685,7.685,0,0,0,7.712,7.761,7.7,7.7,0,1,0-7.712-7.761Z" transform="translate(-179.63 -179.616)" fill="#21428e" stroke="#fff" stroke-width="0.25"/>
    <path id="Path_2609" data-name="Path 2609" d="M2512.729,719.872c-.47,0-.94.008-1.41,0a1.409,1.409,0,0,1-1.432-1.417q-.018-1.079,0-2.159a1.379,1.379,0,0,1,1.423-1.418q1.432-.017,2.864,0a1.386,1.386,0,0,1,1.41,1.391q.022,1.1,0,2.2a1.386,1.386,0,0,1-1.4,1.4C2513.7,719.881,2513.213,719.872,2512.729,719.872Zm-.094-1.473c.428,0,.781-.007,1.134,0,.237.006.354-.08.349-.331-.009-.47-.007-.94,0-1.41,0-.225-.1-.316-.319-.314-.705,0-1.411.007-2.116,0-.255,0-.339.119-.326.353.007.117-.005.235,0,.353.026.422-.179.956.085,1.238C2511.729,718.6,2512.279,718.345,2512.635,718.4Z" transform="translate(-42.228 -132.026)" fill="#21428e" stroke="#fff" stroke-width="0.25"/>
    <path id="Path_2610" data-name="Path 2610" d="M2584.6,714.9c.485,0,.97-.01,1.454,0a1.388,1.388,0,0,1,1.386,1.37q.026,1.123,0,2.247a1.373,1.373,0,0,1-1.379,1.374c-.969.016-1.938.014-2.907,0a1.4,1.4,0,0,1-1.408-1.394q-.021-1.1,0-2.2a1.379,1.379,0,0,1,1.4-1.4C2583.628,714.887,2584.113,714.9,2584.6,714.9Zm-.042,3.525c.353,0,.706-.006,1.058,0,.23.005.362-.063.358-.322-.009-.47-.006-.94,0-1.411,0-.218-.081-.325-.31-.323-.705,0-1.41.006-2.116,0-.248,0-.341.1-.336.344.009.455.012.911,0,1.366-.008.28.127.356.378.347C2583.909,718.413,2584.233,718.421,2584.556,718.421Z" transform="translate(-105.618 -132.048)" fill="#21428e" stroke="#fff" stroke-width="0.25"/>
    <path id="Path_2611" data-name="Path 2611" d="M2656.476,714.894c.485,0,.97-.012,1.454,0a1.383,1.383,0,0,1,1.361,1.348q.03,1.145,0,2.291a1.369,1.369,0,0,1-1.357,1.349c-.983.018-1.968.016-2.951,0a1.4,1.4,0,0,1-1.384-1.372q-.024-1.123,0-2.247a1.373,1.373,0,0,1,1.38-1.371C2655.477,714.883,2655.976,714.894,2656.476,714.894Zm.006,1.472c-.367,0-.735,0-1.1,0-.225,0-.318.1-.315.318.006.47.008.941,0,1.411,0,.255.118.33.352.328q1.036-.011,2.072,0c.246,0,.344-.1.339-.341-.009-.455-.012-.911,0-1.366.008-.277-.122-.359-.375-.35C2657.129,716.374,2656.805,716.366,2656.482,716.367Z" transform="translate(-169.007 -132.046)" fill="#21428e" stroke="#fff" stroke-width="0.25"/>
    <path id="Path_2612" data-name="Path 2612" d="M2728.3,719.867c-.47,0-.94.008-1.41,0a1.41,1.41,0,0,1-1.422-1.428c-.011-.719-.012-1.439,0-2.159a1.373,1.373,0,0,1,1.39-1.405q1.453-.022,2.907,0a1.386,1.386,0,0,1,1.4,1.4q.02,1.1,0,2.2a1.385,1.385,0,0,1-1.412,1.388C2729.267,719.876,2728.782,719.867,2728.3,719.867Zm-.016-1.472c.353,0,.706-.006,1.058,0,.23.005.362-.063.357-.322-.009-.47-.006-.94,0-1.411,0-.218-.081-.325-.31-.323-.705,0-1.411.006-2.116,0-.248,0-.34.1-.336.344.009.455.012.911,0,1.366-.008.28.127.356.378.347C2727.635,718.387,2727.958,718.4,2728.281,718.395Z" transform="translate(-232.413 -132.022)" fill="#21428e" stroke="#fff" stroke-width="0.25"/>
    <path id="Path_2613" data-name="Path 2613" d="M2512.717,773.762c-.47,0-.94.008-1.41,0a1.41,1.41,0,0,1-1.42-1.429c-.01-.719-.012-1.439,0-2.159a1.374,1.374,0,0,1,1.392-1.4q1.453-.022,2.907,0a1.386,1.386,0,0,1,1.4,1.4c.013.719.012,1.439,0,2.159a1.391,1.391,0,0,1-1.415,1.43C2513.686,773.771,2513.2,773.762,2512.717,773.762Zm.061-3.525c-.353,0-.706.009-1.058,0-.263-.009-.373.092-.365.36.012.44.011.882,0,1.322-.006.253.072.381.35.377.69-.011,1.381-.009,2.072,0,.243,0,.347-.091.342-.338-.009-.455-.012-.911,0-1.366.008-.274-.115-.364-.372-.354C2513.425,770.246,2513.1,770.237,2512.778,770.237Z" transform="translate(-42.228 -179.568)" fill="#21428e" stroke="#fff" stroke-width="0.25"/>
    <path id="Path_2614" data-name="Path 2614" d="M2584.615,768.79c.485,0,.969-.011,1.454,0a1.387,1.387,0,0,1,1.375,1.38c.016.749.017,1.5,0,2.247a1.375,1.375,0,0,1-1.389,1.363q-1.454.022-2.907,0a1.4,1.4,0,0,1-1.4-1.4c-.013-.719-.011-1.439,0-2.159a1.384,1.384,0,0,1,1.414-1.428C2583.646,768.781,2584.13,768.79,2584.615,768.79Zm-.058,3.525c.353,0,.706-.009,1.058,0,.265.009.371-.1.364-.362-.012-.441-.011-.882,0-1.322.007-.254-.075-.379-.351-.375-.691.011-1.381.009-2.072,0-.244,0-.346.094-.341.339.009.455.012.911,0,1.366-.008.275.118.361.373.352C2583.91,772.306,2584.234,772.315,2584.557,772.315Z" transform="translate(-105.623 -179.593)" fill="#21428e" stroke="#fff" stroke-width="0.25"/>
    <path id="Path_2615" data-name="Path 2615" d="M2512.737,822.686c.47,0,.94-.007,1.409,0a1.4,1.4,0,0,1,1.433,1.414q.018,1.079,0,2.159a1.384,1.384,0,0,1-1.424,1.42q-1.432.018-2.864,0a1.4,1.4,0,0,1-1.409-1.393q-.021-1.1,0-2.2a1.379,1.379,0,0,1,1.4-1.4C2511.768,822.677,2512.253,822.686,2512.737,822.686Zm.007,1.473c-.353,0-.705,0-1.058,0-.209,0-.338.06-.335.3q.008.727,0,1.455c0,.234.117.3.331.3q1.058-.007,2.116,0c.226,0,.317-.1.314-.32-.006-.456-.013-.912,0-1.367.011-.3-.128-.383-.4-.371C2513.391,824.168,2513.068,824.158,2512.744,824.158Z" transform="translate(-42.223 -227.141)" fill="#21428e" stroke="#fff" stroke-width="0.25"/>
    <path id="Path_2616" data-name="Path 2616" d="M2584.582,827.657c-.47,0-.94.008-1.41,0a1.41,1.41,0,0,1-1.425-1.424q-.017-1.079,0-2.159a1.373,1.373,0,0,1,1.386-1.409c.969-.015,1.938-.014,2.907,0a1.385,1.385,0,0,1,1.4,1.4q.022,1.1,0,2.2a1.384,1.384,0,0,1-1.408,1.392C2585.551,827.666,2585.066,827.657,2584.582,827.657Zm-.023-1.473c.367,0,.735,0,1.1,0,.225,0,.318-.1.315-.318-.006-.47-.008-.94,0-1.411,0-.255-.118-.33-.353-.327q-1.036.01-2.072,0c-.246,0-.344.1-.339.342.009.455.012.911,0,1.366-.008.278.122.359.375.35C2583.912,826.176,2584.236,826.185,2584.559,826.184Z" transform="translate(-105.623 -227.114)" fill="#21428e" stroke="#fff" stroke-width="0.25"/>
    <path id="Path_2617" data-name="Path 2617" d="M2656.391,768.787c.47,0,.94-.009,1.409,0a.732.732,0,1,1,.01,1.463q-1.189.019-2.378,0c-.281,0-.406.09-.39.381.016.308.006.617,0,.925,0,.377-.059.738.428.933a.6.6,0,0,1,.242.777.689.689,0,0,1-.647.511,1.4,1.4,0,0,1-1.485-1.311q-.04-1.188,0-2.378a1.357,1.357,0,0,1,1.312-1.3c.5-.021,1,0,1.5,0Z" transform="translate(-168.987 -179.59)" fill="#21428e" stroke="#fff" stroke-width="0.25"/>
    <path id="Path_2618" data-name="Path 2618" d="M2703.833,827.2a.7.7,0,0,1-.556-.228c-.976-.975-1.957-1.946-2.925-2.929a.742.742,0,1,1,1.043-1.051c.715.7,1.426,1.4,2.116,2.118.242.253.385.248.629,0,1.619-1.64,3.253-3.265,4.884-4.893a2.42,2.42,0,0,1,.395-.348.675.675,0,0,1,.889.088.685.685,0,0,1,.118.921,1.844,1.844,0,0,1-.286.333q-2.8,2.8-5.6,5.606A.917.917,0,0,1,2703.833,827.2Z" transform="translate(-210.039 -224.544)" fill="#21428e" stroke="#fff" stroke-width="0.25"/>
  </g>
</svg>
