<svg xmlns="http://www.w3.org/2000/svg" width="16.042" height="16.44" viewBox="0 0 16.042 16.44">
  <path id="Path_2529" data-name="Path 2529" d="M2598.015,3177.907c-.006-.066-.015-.13-.022-.195-.017-.142-.038-.281-.063-.421-.013-.071-.027-.141-.041-.213-.031-.137-.066-.272-.1-.408-.017-.06-.031-.123-.051-.183-.056-.181-.119-.358-.189-.531-.031-.073-.065-.144-.1-.215-.046-.1-.093-.206-.144-.306s-.092-.175-.14-.261-.088-.152-.134-.226c-.058-.094-.116-.186-.177-.277-.034-.049-.071-.1-.105-.145a6.722,6.722,0,0,0-.859-.971c-.021-.017-.04-.037-.06-.054-.113-.1-.229-.2-.35-.3l-.019-.014a6.49,6.49,0,0,0-1.718-.968,2.6,2.6,0,0,1-.6.82c-.318.187-.3.935.32.864,0,0-.183.188,0,.864s.487.824,1.389.444c.388-.164.681-.08.639.326-.092.864-.741.828-.251,2.219.3.84,1.025,1.167,1.3,1.82a2.513,2.513,0,0,0,1.217.917c.052-.176.1-.356.135-.538.014-.069.025-.139.038-.21.023-.135.044-.272.06-.411.008-.065.016-.129.022-.2.018-.2.031-.406.031-.613s-.013-.418-.031-.623m-6.532,8.1a7.475,7.475,0,1,1,7.292-7.473,7.384,7.384,0,0,1-7.292,7.473m0-15.693a8.222,8.222,0,1,0,8.021,8.22,8.123,8.123,0,0,0-8.021-8.22m-1.777,7.4c.045-.537.888-1.1,1.458-1.354s1.094-.351,1.026-.794-.228-.77-1.117-.77-.5,1.213-1.23.49.158-.537.523-.7.729-.841.093-.887-.5.28-1,.093-.728.654-1.048.537a4.285,4.285,0,0,1-1.15-.938,6.726,6.726,0,0,0-1.768,2.411,3.2,3.2,0,0,0,.776,1.913s.343.818,2.392,1.821c0,0,.388.025-.069-.443s-.956-1.05-.387-1.355.73-.279.866.281.592.233.638-.3m5.822,2.395a.455.455,0,0,0-.033.724c.215.2.648.455.786,0s-.491-.888-.753-.724m-3.133.058c-.774-.677-.683-.981-1.664-.981s-1.594.234-1.344,1.634.98.771.911,1.845a1.985,1.985,0,0,0,.342,1.564c.161.257.639,1,.821-.046a4.57,4.57,0,0,1,.911-2.149c.388-.514.8-1.19.023-1.868" transform="translate(-2583.461 -3170.31)" fill="#e6e6e6"/>
</svg>
