<svg id="Group_854" data-name="Group 854" xmlns="http://www.w3.org/2000/svg" xmlns:xlink="http://www.w3.org/1999/xlink" width="41.133" height="41.14" viewBox="0 0 41.133 41.14">
  <defs>
    <clipPath id="clip-path">
      <rect id="Rectangle_489" data-name="Rectangle 489" width="41.133" height="41.14" fill="#21428e"/>
    </clipPath>
  </defs>
  <g id="Group_482" data-name="Group 482" transform="translate(0 0)" clip-path="url(#clip-path)">
    <path id="Path_1632" data-name="Path 1632" d="M5.885,33.587l4.079-4.282L6.837,21.2,4.6,19.749a.493.493,0,0,1-.2-.486l.736-5.655a.47.47,0,0,1,.355-.4l8.853-2.161,1.228-6.318a.467.467,0,0,1,.427-.381l2.68-.3a.467.467,0,0,1,.519.42.249.249,0,0,1,0,.1l-.112,2.016,1.484-.775.387-4.788.013-.066C20.833.946,20.7.946,20.57.946a19.38,19.38,0,0,0-3.836.374,19.148,19.148,0,0,0-3.671,1.11A19.5,19.5,0,0,0,9.674,4.243,20.082,20.082,0,0,0,6.692,6.686v.007a19.722,19.722,0,0,0-2.45,2.982A19.444,19.444,0,0,0,2.43,13.057v.007a19.71,19.71,0,0,0-1.11,3.665,19.87,19.87,0,0,0,0,7.678A19.71,19.71,0,0,0,2.43,28.07l.013.026a19.207,19.207,0,0,0,1.8,3.363,19.932,19.932,0,0,0,1.642,2.128m16-32.6A18.407,18.407,0,0,1,24.4,1.32a19.465,19.465,0,0,1,3.658,1.1l.02.013a19.62,19.62,0,0,1,6.364,4.256v.007c.171.164.335.335.5.512L29,6.916a.44.44,0,0,0-.131,0,.476.476,0,0,0-.387.552l.473,2.719-2.9,2.942a.482.482,0,0,0-.138.315l-.138,3.612-2.87,3.54a.481.481,0,0,0,.309.788l3.868.414a.467.467,0,0,0,.466-.217l1.11-1.786,2.01,1.655a.469.469,0,0,0,.3.112l3.159.013.013.118L28.517,23.4l-.053.013-4.959,1.635a.5.5,0,0,0-.289.269l-2.4,5.7-.007.013a.48.48,0,0,0,.25.624L28.668,35l-.053,3.468c-.177.085-.355.164-.539.236a19.147,19.147,0,0,1-3.671,1.11,19.869,19.869,0,0,1-7.678,0,19.083,19.083,0,0,1-3.665-1.11,19.5,19.5,0,0,1-3.389-1.813,19.722,19.722,0,0,1-2.982-2.45l-.164-.158,4.322-4.538a.475.475,0,0,0,.085-.519L7.658,20.714a.5.5,0,0,0-.184-.23L5.359,19.112l.663-5.057,8.834-2.161a.465.465,0,0,0,.348-.368l1.215-6.272,1.806-.2-.131,2.312a.479.479,0,0,0,.44.5.574.574,0,0,0,.243-.053l.007-.007,2.443-1.274a.48.48,0,0,0,.25-.381L21.89,1.1a.284.284,0,0,0-.007-.105m7.691,37.015a18.708,18.708,0,0,0,1.885-1.117,19.794,19.794,0,0,0,5.431-5.431A19.268,19.268,0,0,0,38.7,28.07l.013-.02a19.8,19.8,0,0,0,1.1-11.323,19.147,19.147,0,0,0-1.11-3.671,19.743,19.743,0,0,0-1.813-3.389c-.342-.506-.7-1-1.09-1.471l-6.292-.309.42,2.378h-.007a.454.454,0,0,1-.125.407l-2.936,2.988-.144,3.586a.432.432,0,0,1-.105.282l-2.43,3,2.726.3,1.228-1.983.046-.066a.472.472,0,0,1,.67-.059l2.292,1.9,3.4.013a.479.479,0,0,1,.466.414l.118.919a.468.468,0,0,1-.335.519l-6.009,1.826-.02.013L24,25.883l-2.134,5.09,7.467,3.284a.461.461,0,0,1,.282.44Zm2.41-34.553a20.685,20.685,0,0,1,5.688,5.688,20.342,20.342,0,0,1,1.9,3.56,20.073,20.073,0,0,1,1.169,3.849A20.542,20.542,0,0,1,39.59,28.405l-.013.026A20.679,20.679,0,0,1,35.111,35.1v.007a20.541,20.541,0,0,1-3.126,2.561,20.165,20.165,0,0,1-2.673,1.517l-.053.026c-.269.125-.545.25-.821.361a20.675,20.675,0,0,1-11.888,1.162A20.2,20.2,0,0,1,12.7,39.577a20.519,20.519,0,0,1-3.553-1.9A20.508,20.508,0,0,1,1.57,28.458l-.013-.026a20.561,20.561,0,0,1,1.9-19.283A20.723,20.723,0,0,1,6.023,6.023,20.982,20.982,0,0,1,9.149,3.455a20.6,20.6,0,0,1,7.4-3.067A20.618,20.618,0,0,1,28.412,1.543l.026.013a20.194,20.194,0,0,1,3.547,1.9m6.732,24.6a.471.471,0,0,1,.6-.236Z" transform="translate(0 0.002)" fill="#21428e" fill-rule="evenodd"/>
  </g>
</svg>
